<?xml version="1.0" standalone="no"?>
<!DOCTYPE svg PUBLIC "-//W3C//DTD SVG 20010904//EN"
 "http://www.w3.org/TR/2001/REC-SVG-20010904/DTD/svg10.dtd">
<svg version="1.0" xmlns="http://www.w3.org/2000/svg"
 width="512.000000pt" height="512.000000pt" viewBox="0 0 512.000000 512.000000"
 preserveAspectRatio="xMidYMid meet">
<metadata>
Created by potrace 1.11, written by Peter Selinger 2001-2013
</metadata>
<g transform="translate(0.000000,512.000000) scale(0.100000,-0.100000)"
fill="#000000" stroke="none">
<path d="M2497 4713 c-29 -27 -54 -50 -57 -53 -3 -3 -50 -45 -105 -95 -55 -49
-118 -106 -140 -126 -22 -20 -114 -103 -205 -185 -91 -81 -255 -229 -365 -329
-110 -99 -215 -193 -234 -210 -18 -16 -43 -39 -55 -50 -82 -74 -185 -167 -206
-185 -14 -12 -45 -40 -70 -63 -25 -23 -85 -78 -134 -122 -50 -44 -97 -87 -106
-95 -25 -24 -172 -156 -200 -180 -13 -12 -63 -56 -110 -99 -98 -90 -314 -285
-349 -315 -43 -38 -81 -74 -81 -78 0 -1 165 -3 368 -3 l367 0 3 -998 2 -997
48 -1 c58 0 1138 0 1169 0 l23 1 -1 741 c0 407 2 743 5 746 7 7 984 8 991 1 3
-3 7 -339 8 -748 l2 -742 595 0 c327 1 605 1 618 1 l22 1 0 998 0 997 374 0
c338 0 373 1 358 15 -9 8 -87 78 -172 155 -85 77 -157 142 -160 145 -3 3 -48
43 -100 90 -52 47 -100 89 -106 95 -6 5 -49 44 -94 85 -46 41 -88 80 -94 85
-6 6 -74 66 -151 135 -76 69 -169 152 -205 185 -36 33 -100 92 -144 130 -91
81 -94 84 -212 191 -49 44 -186 168 -304 274 -118 107 -220 199 -226 205 -6 5
-42 38 -81 72 -38 34 -83 74 -100 90 -17 15 -46 42 -64 58 -19 17 -83 74 -142
128 -59 53 -112 97 -118 97 -5 0 -33 -21 -62 -47z"/>
</g>
</svg>
